<svg width="100" height="100" viewBox="0 0 100 100" fill="none" xmlns="http://www.w3.org/2000/svg">
<rect width="100" height="100" rx="30" fill="#FF8126"/>
<path d="M42.1668 50.0002C41.0852 50.0002 40.2084 50.9703 40.2084 52.1669C40.2084 53.3636 41.0852 54.3336 42.1668 54.3336H57.8334C58.915 54.3336 59.7918 53.3636 59.7918 52.1669C59.7918 50.9703 58.915 50.0002 57.8334 50.0002H42.1668Z" fill="white"/>
<path d="M40.2084 60.8337C40.2084 59.637 41.0852 58.667 42.1668 58.667H50.0001C51.0817 58.667 51.9584 59.637 51.9584 60.8337C51.9584 62.0303 51.0817 63.0003 50.0001 63.0003H42.1668C41.0852 63.0003 40.2084 62.0303 40.2084 60.8337Z" fill="white"/>
<path fill-rule="evenodd" clip-rule="evenodd" d="M42.1667 30.5002C42.1667 29.3036 41.2899 28.3335 40.2083 28.3335C39.1268 28.3335 38.25 29.3036 38.25 30.5002V32.8835C33.7806 33.8873 30.4167 38.2591 30.4167 43.5002V60.8335C30.4167 66.8165 34.8006 71.6668 40.2083 71.6668H59.7917C65.1994 71.6668 69.5833 66.8165 69.5833 60.8335V43.5002C69.5833 38.2591 66.2193 33.8873 61.75 32.8835V30.5002C61.75 29.3036 60.8733 28.3335 59.7917 28.3335C58.7101 28.3335 57.8333 29.3036 57.8333 30.5002V32.6668H42.1667V30.5002ZM34.3333 45.6668H65.6667V60.8335C65.6667 64.4234 63.0364 67.3335 59.7917 67.3335H40.2083C36.9637 67.3335 34.3333 64.4234 34.3333 60.8335V45.6668Z" fill="white"/>
</svg>
