<svg width="150" height="32" viewBox="0 0 150 32" fill="none" xmlns="http://www.w3.org/2000/svg">
<path fill-rule="evenodd" clip-rule="evenodd" d="M9.79909 21.0838C9.47932 20.7951 9.05182 20.6178 8.58409 20.6178H7.96364C7.5225 20.6178 6.85841 20.0298 6.85841 19.5404V16.917V15.2623V12.0116H8.32227C9.30614 12.0116 10.1114 11.2243 10.1114 10.2622C10.1114 9.30022 9.30614 8.51287 8.32227 8.51287H6.85841V6.13215C6.85841 5.04413 5.94818 4.15478 4.83545 4.15478C3.72341 4.15478 2.81318 5.04413 2.81318 6.13215V8.51287H1.78909C0.805227 8.51287 0 9.30022 0 10.2622C0 11.2243 0.805227 12.0116 1.78909 12.0116H2.81318C2.81318 14.9303 2.81318 17.6537 2.81318 20.5725C2.78523 21.1891 3.06818 21.8191 3.06818 21.8191C3.5175 22.9512 4.53273 23.8072 5.77432 24.0539C6.01364 24.1012 6.26114 24.1265 6.51409 24.1265H8.58409C9.57068 24.1265 10.378 23.3365 10.378 22.3718C10.378 22.0225 10.2723 21.6965 10.0909 21.4225C10.0084 21.2978 9.91023 21.1845 9.79909 21.0838ZM44.7048 17.0564H36.9184C38.548 22.4152 43.1666 20.5765 45.002 19.7791C45.6709 19.4891 47.173 20.2204 46.993 21.4405C46.813 22.6598 45.2005 23.1932 45.2005 23.1932C45.2005 23.1932 43.1536 24.0165 40.6636 23.9219C36.1289 23.7492 32.8964 20.3198 32.7593 15.8224C32.897 11.3249 36.3866 7.72285 40.6718 7.72285C47.3393 7.72285 51.1002 17.0564 46.5825 17.0564H44.7048ZM44.7048 14.3337C44.3673 12.3943 42.733 10.8209 40.8116 10.8209C38.8909 10.8209 37.2457 12.3376 36.9184 14.3337H44.7048ZM57.6089 21.0838C57.2891 20.7951 56.8616 20.6178 56.3939 20.6178H55.7734C55.3316 20.6178 54.6675 20.0298 54.6675 19.5404V16.917V15.2623V12.0116H56.132C57.1159 12.0116 57.9211 11.2243 57.9211 10.2622C57.9211 9.30022 57.1159 8.51287 56.132 8.51287H54.6675V6.13215C54.6675 5.04413 53.758 4.15478 52.6452 4.15478C51.5332 4.15478 50.623 5.04413 50.623 6.13215V8.51287H49.5982C48.615 8.51287 47.8098 9.30022 47.8098 10.2622C47.8098 11.2243 48.615 12.0116 49.5982 12.0116H50.623C50.623 14.9303 50.623 17.6537 50.623 20.5725C50.595 21.1891 50.878 21.8191 50.878 21.8191C51.3273 22.9512 52.3425 23.8072 53.5841 24.0539C53.8234 24.1012 54.0702 24.1265 54.3239 24.1265H56.3939C57.3805 24.1265 58.1877 23.3365 58.1877 22.3718C58.1877 22.0225 58.0821 21.6965 57.9007 21.4225C57.8182 21.2978 57.72 21.1845 57.6089 21.0838ZM19.0241 9.9769V21.8765C19.0241 22.9638 19.9343 23.8539 21.0464 23.8539C22.1591 23.8539 23.0686 22.9638 23.0686 21.8765V20.5611V19.8871L24.8768 17.8591L25.1502 18.2264L28.7168 23.0305C29.3502 23.8825 30.5809 24.0739 31.4523 23.4545C32.3236 22.8358 32.5193 21.6325 31.8866 20.7805L27.7902 15.2643L31.455 11.1536C32.1102 10.4189 32.0311 9.29355 31.2798 8.65287C30.5284 8.01286 29.3775 8.09019 28.723 8.82488L25.6057 12.3216L23.0686 15.1677V8.90554V4.34145C23.0686 3.25409 22.1591 2.36407 21.0464 2.36407C19.9357 2.36407 19.0268 3.25209 19.0241 4.33745C19.0241 4.33878 19.0241 4.34012 19.0241 4.34145V9.9769ZM14.087 7.83752C15.1991 7.83752 16.1093 8.72754 16.1093 9.8149V21.5571C16.1093 22.6445 15.1991 23.5345 14.087 23.5345C12.9743 23.5345 12.0648 22.6445 12.0648 21.5571V9.8149C12.0648 8.72754 12.9743 7.83752 14.087 7.83752Z" fill="#191825" fill-opacity="0.5"/>
<path fill-rule="evenodd" clip-rule="evenodd" d="M99.8073 15.7691C99.8073 12.679 102.163 10.1743 105.07 10.1743C105.916 10.1743 106.716 10.387 107.425 10.765C107.855 10.9943 108.252 11.2843 108.605 11.625C108.616 11.6283 108.627 11.6323 108.638 11.6357C108.773 11.683 108.919 11.7083 109.07 11.7083C109.784 11.7083 110.363 11.143 110.363 10.445C110.363 10.215 110.299 9.99895 110.189 9.81361C110.182 9.80095 110.176 9.78761 110.17 9.77361C109.841 9.46961 109.486 9.1936 109.111 8.94893C107.877 8.14558 106.41 7.68024 104.836 7.68024C100.449 7.68024 96.8918 11.3016 96.8918 15.7691C96.8918 20.2365 100.449 23.8579 104.836 23.8579C106.273 23.8579 107.621 23.4692 108.783 22.7906C109.299 22.4892 109.777 22.1319 110.212 21.7252C110.215 21.7185 110.218 21.7125 110.221 21.7065C110.311 21.5345 110.363 21.3392 110.363 21.1319C110.363 20.4345 109.784 19.8692 109.07 19.8692C108.877 19.8692 108.693 19.9105 108.528 19.9858C108.364 20.1372 108.192 20.2778 108.013 20.4072C108.012 20.4078 108.012 20.4085 108.011 20.4092C107.998 20.4278 107.978 20.4405 107.952 20.4498C107.66 20.6532 107.348 20.8272 107.02 20.9665C106.417 21.2225 105.759 21.3632 105.07 21.3632C102.163 21.3632 99.8073 18.8585 99.8073 15.7691ZM131.384 10.2896V9.31494C131.384 8.56892 130.76 7.95824 129.997 7.95824C129.234 7.95824 128.609 8.56892 128.609 9.31494V22.2179C128.609 22.9639 129.234 23.5746 129.997 23.5746C130.76 23.5746 131.384 22.9639 131.384 22.2179V12.259C133.235 10.2203 136.574 8.67626 137.773 12.259V22.2179C137.773 22.9639 138.398 23.5746 139.16 23.5746C139.923 23.5746 140.548 22.9639 140.548 22.2179V12.259C143.257 9.59961 145.755 9.3036 147.224 12.259V22.2179C147.224 22.9639 147.849 23.5746 148.612 23.5746C149.375 23.5746 150 22.9639 150 22.2179V11.3463C149.619 9.79228 148.801 8.77759 147.774 8.23558C145.573 7.07422 142.414 8.08691 140.548 10.6296C140.42 10.2456 140.255 9.90162 140.059 9.59761C138.333 6.92622 134.17 7.30956 131.384 10.2896ZM119.293 7.68024C123.68 7.68024 127.238 11.3016 127.238 15.7691C127.238 20.2365 123.68 23.8579 119.293 23.8579C114.905 23.8579 111.348 20.2365 111.348 15.7691C111.348 11.3016 114.905 7.68024 119.293 7.68024ZM119.256 10.1743C121.996 10.1743 124.216 12.679 124.216 15.7691C124.216 18.8585 121.996 21.3632 119.256 21.3632C116.517 21.3632 114.297 18.8585 114.297 15.7691C114.297 12.679 116.517 10.1743 119.256 10.1743Z" fill="#191825" fill-opacity="0.5"/>
<path fill-rule="evenodd" clip-rule="evenodd" d="M77.5439 0C86.5814 0 93.9075 7.16348 93.9075 15.9997C93.9075 24.8365 86.5814 32 77.5439 32C68.507 32 61.1809 24.8365 61.1809 15.9997C61.1809 7.16348 68.507 0 77.5439 0Z" fill="#191825" fill-opacity="0.5"/>
</svg>
